<?xml version="1.0" encoding="UTF-8" standalone="no"?>
<svg xmlns:svg="http://www.w3.org/2000/svg"
xmlns="http://www.w3.org/2000/svg" version="1.1"
width="360" height="185">
<!-- Created with the Wikimedia parliament diagram creator (http://parliamentdiagram.toolforge.org/parliamentinputform.html) -->
<g>
<text x="175" y="175" style="font-size:36px;font-weight:bold;text-align:center;text-anchor:middle;font-family:sans-serif">179</text>
  <g style="fill:#E6801A; stroke:none" id="Enhedslisten">
    <circle cx="12.24" cy="174.29" r="5.71"/>
    <circle cx="26.53" cy="174.29" r="5.71"/>
    <circle cx="40.83" cy="174.29" r="5.71"/>
    <circle cx="55.13" cy="174.29" r="5.71"/>
    <circle cx="69.43" cy="174.29" r="5.71"/>
    <circle cx="83.74" cy="174.29" r="5.71"/>
    <circle cx="98.06" cy="174.29" r="5.71"/>
    <circle cx="13.50" cy="158.71" r="5.71"/>
    <circle cx="27.92" cy="158.66" r="5.71"/>
    <circle cx="42.37" cy="158.59" r="5.71"/>
    <circle cx="56.75" cy="159.13" r="5.71"/>
    <circle cx="71.27" cy="159.12" r="5.71"/>
    <circle cx="85.86" cy="159.11" r="5.71"/>
  </g>
  <g style="fill:#E07EA8; stroke:none" id="SocialistiskFolkeparti">
    <circle cx="16.20" cy="143.32" r="5.71"/>
    <circle cx="30.89" cy="143.25" r="5.71"/>
    <circle cx="100.56" cy="159.11" r="5.71"/>
    <circle cx="45.67" cy="143.16" r="5.71"/>
    <circle cx="60.21" cy="144.29" r="5.71"/>
    <circle cx="20.32" cy="128.24" r="5.71"/>
    <circle cx="75.18" cy="144.35" r="5.71"/>
    <circle cx="35.42" cy="128.22" r="5.71"/>
    <circle cx="90.36" cy="144.46" r="5.71"/>
    <circle cx="50.70" cy="128.21" r="5.71"/>
    <circle cx="25.83" cy="113.62" r="5.71"/>
    <circle cx="65.45" cy="129.98" r="5.71"/>
    <circle cx="105.85" cy="144.65" r="5.71"/>
    <circle cx="41.46" cy="113.73" r="5.71"/>
    <circle cx="81.09" cy="130.26" r="5.71"/>
  </g>
  <g style="fill:#EF3B2C; stroke:none" id="Siumut">
    <circle cx="57.39" cy="113.92" r="5.71"/>
  </g>
  <g style="fill:#A82721; stroke:none" id="Socialdemokratiet">
    <circle cx="32.67" cy="99.57" r="5.71"/>
    <circle cx="72.39" cy="116.41" r="5.71"/>
    <circle cx="97.12" cy="130.71" r="5.71"/>
    <circle cx="48.95" cy="99.94" r="5.71"/>
    <circle cx="40.79" cy="86.21" r="5.71"/>
    <circle cx="88.88" cy="117.12" r="5.71"/>
    <circle cx="65.64" cy="100.48" r="5.71"/>
    <circle cx="113.75" cy="131.44" r="5.71"/>
    <circle cx="57.80" cy="86.98" r="5.71"/>
    <circle cx="80.93" cy="103.78" r="5.71"/>
    <circle cx="50.11" cy="73.67" r="5.71"/>
    <circle cx="105.98" cy="118.20" r="5.71"/>
    <circle cx="75.37" cy="88.06" r="5.71"/>
    <circle cx="98.40" cy="105.17" r="5.71"/>
    <circle cx="67.94" cy="75.00" r="5.71"/>
    <circle cx="90.94" cy="92.29" r="5.71"/>
    <circle cx="60.57" cy="62.05" r="5.71"/>
    <circle cx="123.97" cy="119.93" r="5.71"/>
    <circle cx="86.44" cy="76.82" r="5.71"/>
    <circle cx="116.71" cy="107.25" r="5.71"/>
    <circle cx="79.24" cy="64.11" r="5.71"/>
    <circle cx="72.05" cy="51.46" r="5.71"/>
    <circle cx="109.48" cy="94.65" r="5.71"/>
    <circle cx="102.27" cy="82.10" r="5.71"/>
    <circle cx="98.70" cy="66.90" r="5.71"/>
    <circle cx="91.59" cy="54.43" r="5.71"/>
    <circle cx="84.48" cy="41.97" r="5.71"/>
    <circle cx="136.16" cy="110.53" r="5.71"/>
    <circle cx="129.03" cy="98.14" r="5.71"/>
    <circle cx="121.90" cy="85.75" r="5.71"/>
    <circle cx="114.77" cy="73.37" r="5.71"/>
    <circle cx="97.73" cy="33.69" r="5.71"/>
    <circle cx="104.87" cy="46.06" r="5.71"/>
    <circle cx="112.01" cy="58.43" r="5.71"/>
    <circle cx="128.23" cy="66.22" r="5.71"/>
    <circle cx="111.69" cy="26.67" r="5.71"/>
    <circle cx="135.43" cy="78.65" r="5.71"/>
    <circle cx="118.93" cy="39.09" r="5.71"/>
    <circle cx="142.65" cy="91.10" r="5.71"/>
    <circle cx="126.19" cy="51.53" r="5.71"/>
    <circle cx="149.89" cy="103.58" r="5.71"/>
    <circle cx="126.25" cy="20.98" r="5.71"/>
    <circle cx="133.63" cy="33.60" r="5.71"/>
    <circle cx="142.46" cy="60.77" r="5.71"/>
    <circle cx="141.07" cy="46.27" r="5.71"/>
    <circle cx="149.81" cy="73.48" r="5.71"/>
    <circle cx="157.20" cy="86.30" r="5.71"/>
    <circle cx="141.27" cy="16.67" r="5.71"/>
  </g>
  <g style="fill:#2B8738; stroke:none" id="Alternativet">
    <circle cx="148.82" cy="29.63" r="5.71"/>
  </g>
  <g style="fill:#737373; stroke:none" id="Udenforfolketingsgrupperne">
    <circle cx="164.68" cy="99.30" r="5.71"/>
    <circle cx="157.25" cy="57.09" r="5.71"/>
    <circle cx="156.44" cy="42.72" r="5.71"/>
    <circle cx="156.63" cy="13.78" r="5.71"/>
  </g>
  <g style="fill:#733280; stroke:none" id="RadikaleVenstre">
    <circle cx="164.76" cy="70.34" r="5.71"/>
    <circle cx="164.33" cy="27.23" r="5.71"/>
    <circle cx="172.34" cy="83.88" r="5.71"/>
    <circle cx="172.38" cy="55.23" r="5.71"/>
    <circle cx="172.11" cy="40.94" r="5.71"/>
    <circle cx="172.19" cy="12.32" r="5.71"/>
    <circle cx="180.00" cy="26.43" r="5.71"/>
    <circle cx="180.00" cy="69.29" r="5.71"/>
    <circle cx="180.00" cy="97.86" r="5.71"/>
    <circle cx="187.81" cy="12.32" r="5.71"/>
    <circle cx="187.89" cy="40.94" r="5.71"/>
    <circle cx="187.62" cy="55.23" r="5.71"/>
    <circle cx="187.66" cy="83.88" r="5.71"/>
    <circle cx="195.67" cy="27.23" r="5.71"/>
    <circle cx="195.24" cy="70.34" r="5.71"/>
    <circle cx="203.37" cy="13.78" r="5.71"/>
  </g>
  <g style="fill:#41B6C4; stroke:none" id="Sambandsflokkurin">
    <circle cx="203.56" cy="42.72" r="5.71"/>
  </g>
  <g style="fill:#67001F; stroke:none" id="Javnaðarflokkurin">
    <circle cx="202.75" cy="57.09" r="5.71"/>
  </g>
  <g style="fill:#980043; stroke:none" id="InuitAtaqatigiit">
    <circle cx="195.32" cy="99.30" r="5.71"/>
  </g>
  <g style="fill:#254264; stroke:none" id="Venstre">
    <circle cx="211.18" cy="29.63" r="5.71"/>
    <circle cx="218.73" cy="16.67" r="5.71"/>
    <circle cx="202.80" cy="86.30" r="5.71"/>
    <circle cx="210.19" cy="73.48" r="5.71"/>
    <circle cx="218.93" cy="46.27" r="5.71"/>
    <circle cx="217.54" cy="60.77" r="5.71"/>
    <circle cx="226.37" cy="33.60" r="5.71"/>
    <circle cx="233.75" cy="20.98" r="5.71"/>
    <circle cx="210.11" cy="103.58" r="5.71"/>
    <circle cx="233.81" cy="51.53" r="5.71"/>
    <circle cx="217.35" cy="91.10" r="5.71"/>
    <circle cx="241.07" cy="39.09" r="5.71"/>
    <circle cx="224.57" cy="78.65" r="5.71"/>
    <circle cx="248.31" cy="26.67" r="5.71"/>
    <circle cx="231.77" cy="66.22" r="5.71"/>
    <circle cx="247.99" cy="58.43" r="5.71"/>
    <circle cx="255.13" cy="46.06" r="5.71"/>
    <circle cx="262.27" cy="33.69" r="5.71"/>
    <circle cx="245.23" cy="73.37" r="5.71"/>
    <circle cx="238.10" cy="85.75" r="5.71"/>
    <circle cx="230.97" cy="98.14" r="5.71"/>
    <circle cx="223.84" cy="110.53" r="5.71"/>
    <circle cx="275.52" cy="41.97" r="5.71"/>
    <circle cx="268.41" cy="54.43" r="5.71"/>
    <circle cx="261.30" cy="66.90" r="5.71"/>
    <circle cx="257.73" cy="82.10" r="5.71"/>
    <circle cx="250.52" cy="94.65" r="5.71"/>
    <circle cx="287.95" cy="51.46" r="5.71"/>
    <circle cx="280.76" cy="64.11" r="5.71"/>
    <circle cx="243.29" cy="107.25" r="5.71"/>
    <circle cx="273.56" cy="76.82" r="5.71"/>
    <circle cx="236.03" cy="119.93" r="5.71"/>
    <circle cx="299.43" cy="62.05" r="5.71"/>
    <circle cx="269.06" cy="92.29" r="5.71"/>
    <circle cx="292.06" cy="75.00" r="5.71"/>
    <circle cx="261.60" cy="105.17" r="5.71"/>
    <circle cx="284.63" cy="88.06" r="5.71"/>
    <circle cx="254.02" cy="118.20" r="5.71"/>
    <circle cx="309.89" cy="73.67" r="5.71"/>
    <circle cx="279.07" cy="103.78" r="5.71"/>
    <circle cx="302.20" cy="86.98" r="5.71"/>
    <circle cx="246.25" cy="131.44" r="5.71"/>
  </g>
  <g style="fill:#96B226; stroke:none" id="DetKonservativeFolkeparti">
    <circle cx="294.36" cy="100.48" r="5.71"/>
    <circle cx="271.12" cy="117.12" r="5.71"/>
    <circle cx="319.21" cy="86.21" r="5.71"/>
    <circle cx="311.05" cy="99.94" r="5.71"/>
    <circle cx="262.88" cy="130.71" r="5.71"/>
    <circle cx="287.61" cy="116.41" r="5.71"/>
    <circle cx="327.33" cy="99.57" r="5.71"/>
    <circle cx="302.61" cy="113.92" r="5.71"/>
    <circle cx="278.91" cy="130.26" r="5.71"/>
    <circle cx="318.54" cy="113.73" r="5.71"/>
    <circle cx="254.15" cy="144.65" r="5.71"/>
    <circle cx="294.55" cy="129.98" r="5.71"/>
    <circle cx="334.17" cy="113.62" r="5.71"/>
  </g>
  <g style="fill:#3FB2BE; stroke:none" id="LiberalAlliance">
    <circle cx="309.30" cy="128.21" r="5.71"/>
    <circle cx="269.64" cy="144.46" r="5.71"/>
    <circle cx="324.58" cy="128.22" r="5.71"/>
  </g>
  <g style="fill:#EAC73E; stroke:none" id="DanskFolkeparti">
    <circle cx="284.82" cy="144.35" r="5.71"/>
    <circle cx="339.68" cy="128.24" r="5.71"/>
    <circle cx="299.79" cy="144.29" r="5.71"/>
    <circle cx="314.33" cy="143.16" r="5.71"/>
    <circle cx="259.44" cy="159.11" r="5.71"/>
    <circle cx="329.11" cy="143.25" r="5.71"/>
    <circle cx="343.80" cy="143.32" r="5.71"/>
    <circle cx="274.14" cy="159.11" r="5.71"/>
    <circle cx="288.73" cy="159.12" r="5.71"/>
    <circle cx="303.25" cy="159.13" r="5.71"/>
    <circle cx="317.63" cy="158.59" r="5.71"/>
    <circle cx="332.08" cy="158.66" r="5.71"/>
    <circle cx="346.50" cy="158.71" r="5.71"/>
    <circle cx="261.94" cy="174.29" r="5.71"/>
    <circle cx="276.26" cy="174.29" r="5.71"/>
    <circle cx="290.57" cy="174.29" r="5.71"/>
  </g>
  <g style="fill:#127B7F; stroke:none" id="NyeBorgerlige">
    <circle cx="304.87" cy="174.29" r="5.71"/>
    <circle cx="319.17" cy="174.29" r="5.71"/>
    <circle cx="333.47" cy="174.29" r="5.71"/>
    <circle cx="347.76" cy="174.29" r="5.71"/>
  </g>
</g>
</svg>
